<?xml version="1.0" encoding="utf-8"?>
<!-- Generator: Adobe Illustrator 19.0.0, SVG Export Plug-In . SVG Version: 6.00 Build 0)  -->
<svg version="1.1" id="Laag_1" xmlns="http://www.w3.org/2000/svg" xmlns:xlink="http://www.w3.org/1999/xlink" x="0px" y="0px"
	 viewBox="91.9 294.3 500.2 179.6" style="enable-background:new 91.9 294.3 500.2 179.6;" xml:space="preserve">
<style type="text/css">
	.st0{fill:#009D98;}
	.st1{fill:#9A9999;}
</style>
<g>
	<g>
		<g>
			<polygon class="st0" points="118.6,415.1 110.4,415.1 91.9,359 103.3,359 114.5,395.6 125.8,359 137.2,359 			"/>
		</g>
		<g>
			<polygon class="st0" points="147.1,415.1 147.1,359 184.1,359 184.1,368.8 158.1,368.8 158.1,381.9 180.2,381.9 180.2,391.7 
				158.1,391.7 158.1,405.3 184.1,405.3 184.1,415.1 			"/>
		</g>
		<g>
			<g>
				<path class="st0" d="M227.7,415.1l-11-22.4h-7.9v22.4h-11V359h22c11.4,0,18.2,7.8,18.2,17.2c0,7.9-4.8,12.8-10.2,14.7l12.5,24.2
					H227.7L227.7,415.1z M219.2,368.8h-10.3v14.8h10.3c4.8,0,8-3.1,8-7.4C227.2,371.9,224,368.8,219.2,368.8"/>
			</g>
			<g>
				<polygon class="st0" points="282.6,415.1 282.6,391.6 263.6,391.6 263.6,415.1 252.6,415.1 252.6,359 263.6,359 263.6,381.9 
					282.6,381.9 282.6,359 293.5,359 293.5,415.1 				"/>
			</g>
			<g>
				<polygon class="st0" points="309.7,415.1 309.7,359 346.7,359 346.7,368.8 320.7,368.8 320.7,381.9 342.8,381.9 342.8,391.7 
					320.7,391.7 320.7,405.3 346.7,405.3 346.7,415.1 				"/>
			</g>
			<g>
				<polygon class="st0" points="360.5,415.1 360.5,359 397.5,359 397.5,368.8 371.5,368.8 371.5,381.9 393.6,381.9 393.6,391.7 
					371.5,391.7 371.5,405.3 397.5,405.3 397.5,415.1 				"/>
			</g>
			<g>
				<path class="st0" d="M426.8,415.6c-8.5,0-15-1.8-20.5-7.4l7.1-7.1c3.5,3.5,8.3,4.7,13.5,4.7c6.5,0,9.9-2.4,9.9-6.9
					c0-2-0.6-3.6-1.7-4.7c-1.1-1-2.4-1.6-5-2l-6.8-0.9c-4.8-0.7-8.4-2.2-10.9-4.6c-2.7-2.7-4-6.3-4-11c0-10,7.4-17,19.5-17
					c7.7,0,13.3,1.9,18.1,6.5l-6.9,6.9c-3.5-3.4-7.8-3.9-11.5-3.9c-5.8,0-8.7,3.2-8.7,7.1c0,1.4,0.5,2.9,1.7,4
					c1.1,1,2.9,1.9,5.2,2.2l6.6,1c5.1,0.7,8.4,2.1,10.7,4.3c3,2.8,4.3,6.9,4.3,11.9C447.6,409.4,438.5,415.6,426.8,415.6"/>
			</g>
		</g>
	</g>
	<g>
		<path class="st1" d="M465.1,414.8v-9.1l20.6-24c2-2.4,2.9-4.1,2.9-6.7c0-4.1-2.4-6.9-6.7-6.9c-3.3,0-6.8,1.7-6.8,7.1H465
			c0-10.1,7.4-16.1,16.8-16.1c9.8,0,16.8,6.1,16.8,16.1c0,5.4-2.1,8.2-5.9,12.7l-15.4,17.9h21.3v9.1h-33.5V414.8z"/>
		<path class="st1" d="M537.4,406.9v7.8h-9.7v-7.8h-22.6v-9.5l18.9-37.9h11l-18.9,37.9h11.6v-10.3h9.7v10.3h5v9.5
			C542.4,406.9,537.4,406.9,537.4,406.9z"/>
	</g>
	<g>
		<g>
			<path class="st1" d="M437.7,349.9c13.2-23.8,38.5-40.1,67.6-40.1l0,0v6.8l16.3-11.2l-16.3-11.1v5.9l0,0c-34.2,0-63.9,20-78,48.8
				c0.4,0,0.7,0,1.1,0C431.8,349,434.9,349.3,437.7,349.9z"/>
		</g>
		<g>
			<path class="st1" d="M530.9,304.1l-10.1,7.3c35.2,7.2,61.7,38.4,61.7,75.7c0,42.6-34.6,77.2-77.2,77.2
				c-29.3,0-54.8-16.5-67.9-40.6c-3.1,0.9-6.5,1.4-10.1,1.4c14.1,28.9,43.8,48.8,78,48.8c47.9,0,86.8-38.9,86.8-86.8
				C592.1,348.1,566.3,315.1,530.9,304.1z"/>
		</g>
	</g>
</g>
</svg>
